<svg width="136" height="60" viewBox="0 0 136 60" fill="none" xmlns="http://www.w3.org/2000/svg">
<path d="M71.2 32.09C71.1964 32.3741 71.2534 32.6558 71.3672 32.9161C71.4811 33.1765 71.649 33.4096 71.86 33.6C72.3723 33.9442 72.984 34.1094 73.6 34.07C73.9143 34.0775 74.2279 34.0371 74.53 33.95C74.7509 33.8857 74.9578 33.7806 75.14 33.64C75.2926 33.5159 75.4099 33.3538 75.48 33.17C75.5503 32.9849 75.5843 32.788 75.58 32.59C75.5754 32.2852 75.4578 31.993 75.25 31.77C74.9122 31.442 74.4696 31.2437 74 31.21L72.54 30.94C72.021 30.854 71.5118 30.7167 71.02 30.53C70.6435 30.3768 70.2979 30.1566 70 29.88C69.6954 29.6048 69.4591 29.2624 69.31 28.88C69.1243 28.4495 69.0192 27.9885 69 27.52C68.9909 27.0278 69.1007 26.5407 69.32 26.1C69.5326 25.6973 69.8418 25.3537 70.22 25.1C70.6358 24.8128 71.0998 24.6028 71.59 24.48C72.1652 24.3347 72.7568 24.2642 73.35 24.27C74.0274 24.2541 74.703 24.3487 75.35 24.55C75.8379 24.7042 76.2878 24.9598 76.67 25.3C77.0003 25.593 77.2572 25.9595 77.42 26.37C77.5815 26.781 77.6891 27.2113 77.74 27.65L75.53 27.93C75.4671 27.4197 75.2305 26.9465 74.86 26.59C74.4201 26.2899 73.891 26.1488 73.36 26.19C73.0237 26.1787 72.6874 26.2123 72.36 26.29C72.1395 26.3389 71.9295 26.427 71.74 26.55C71.5934 26.644 71.4785 26.7799 71.41 26.94C71.3426 27.0839 71.3084 27.2411 71.31 27.4C71.2984 27.5725 71.3236 27.7456 71.3839 27.9076C71.4443 28.0697 71.5384 28.2171 71.66 28.34C72.0557 28.6139 72.5195 28.7731 73 28.8L74.54 29.1C75.5211 29.2353 76.4455 29.6404 77.21 30.27C77.4945 30.5854 77.7114 30.9558 77.8472 31.3582C77.9831 31.7607 78.0351 32.1867 78 32.61C78.0114 33.0864 77.9228 33.5599 77.74 34C77.5549 34.4192 77.274 34.7891 76.92 35.08C76.5215 35.4117 76.0583 35.6569 75.56 35.8C74.9412 35.9875 74.2964 36.0753 73.65 36.06C72.3998 36.1408 71.1599 35.7876 70.14 35.06C69.7112 34.6892 69.3702 34.2277 69.1419 33.7088C68.9136 33.1899 68.8036 32.6267 68.82 32.06L71.2 32.09ZM79.08 27.55H81.22V28.63C81.5024 28.2081 81.8872 27.8648 82.3384 27.6322C82.7897 27.3996 83.2926 27.2853 83.8 27.3C84.289 27.2696 84.778 27.3595 85.2242 27.5617C85.6705 27.7639 86.0604 28.0723 86.36 28.46C86.9725 29.4071 87.27 30.5237 87.21 31.65C87.219 32.2494 87.1346 32.8465 86.96 33.42C86.8209 33.922 86.5829 34.3912 86.26 34.8C85.9543 35.1771 85.5682 35.4812 85.13 35.69C84.6632 35.9049 84.1537 36.0109 83.64 36C83.2235 35.9998 82.8103 35.9253 82.42 35.78C81.9686 35.5931 81.5751 35.2894 81.28 34.9V38.8H79.08V27.55ZM81.27 31.71C81.2558 32.1439 81.2995 32.5777 81.4 33C81.4732 33.2929 81.6214 33.5617 81.83 33.78C82.0122 33.9507 82.2311 34.0773 82.47 34.15C82.6816 34.2093 82.9003 34.2395 83.12 34.24C83.3581 34.2404 83.5935 34.1892 83.81 34.09C84.0361 33.9925 84.2352 33.8415 84.39 33.65C84.5675 33.4106 84.6966 33.1389 84.77 32.85C84.8752 32.4658 84.9223 32.0681 84.91 31.67C84.9197 31.2627 84.876 30.8559 84.78 30.46C84.7077 30.1756 84.5822 29.9076 84.41 29.67C84.2647 29.4772 84.0717 29.3255 83.85 29.23C83.6345 29.141 83.4031 29.0968 83.17 29.1C82.9285 29.0919 82.6877 29.1292 82.46 29.21C82.2489 29.2898 82.0528 29.4048 81.88 29.55C81.6646 29.7601 81.5062 30.0217 81.42 30.31C81.3098 30.6865 81.2592 31.0779 81.27 31.47V31.71ZM95.82 33.19C95.7273 34.0047 95.3309 34.7545 94.71 35.29C93.9546 35.8107 93.0454 36.0609 92.13 36C91.5659 36.0401 90.9997 35.9601 90.4688 35.7653C89.9379 35.5705 89.4543 35.2654 89.05 34.87C88.3253 33.9636 87.9683 32.8176 88.05 31.66C88.0396 31.0337 88.1412 30.4106 88.35 29.82C88.5332 29.3077 88.8191 28.8381 89.19 28.44C89.5577 28.0672 90.001 27.7773 90.49 27.59C91.0231 27.3877 91.5899 27.2893 92.16 27.3C92.6837 27.26 93.2097 27.3361 93.7006 27.5228C94.1915 27.7095 94.6352 28.0022 95 28.38C95.6883 29.1931 96.0453 30.2356 96 31.3V32.18H90.31C90.3003 32.7394 90.48 33.2857 90.82 33.73C90.9975 33.9237 91.2166 34.0748 91.4608 34.1718C91.705 34.2688 91.9679 34.3092 92.23 34.29C92.5789 34.34 92.9336 34.2535 93.2205 34.0486C93.5073 33.8438 93.7041 33.5362 93.77 33.19H95.82ZM93.82 30.74C93.8446 30.2653 93.6992 29.7973 93.41 29.42C93.241 29.2512 93.0369 29.1216 92.8123 29.0404C92.5876 28.9591 92.3479 28.9283 92.11 28.95C91.8463 28.9415 91.5838 28.9893 91.34 29.09C91.1282 29.175 90.9372 29.3046 90.78 29.47C90.6278 29.6357 90.5089 29.8293 90.43 30.04C90.3417 30.2631 90.2943 30.5002 90.29 30.74H93.82ZM102.05 34.74C101.742 35.1014 101.373 35.406 100.96 35.64C100.478 35.8872 99.9407 36.0044 99.4 35.98C99.045 35.9854 98.6912 35.9382 98.35 35.84C98.0359 35.7547 97.7429 35.6049 97.49 35.4C97.2379 35.195 97.0361 34.935 96.9 34.64C96.7438 34.2914 96.6686 33.9119 96.68 33.53C96.6614 33.0418 96.7941 32.5598 97.06 32.15C97.3147 31.7903 97.6596 31.5041 98.06 31.32C98.4941 31.1129 98.9554 30.9681 99.43 30.89C99.9433 30.8098 100.461 30.7598 100.98 30.74L101.98 30.69V30.28C101.995 30.0928 101.966 29.9046 101.895 29.7308C101.824 29.557 101.712 29.4025 101.57 29.28C101.274 29.0853 100.924 28.9874 100.57 29C99.7033 29 99.2033 29.3333 99.07 30L97.07 29.81C97.1108 29.4362 97.2331 29.0759 97.4284 28.7545C97.6236 28.4331 97.887 28.1585 98.2 27.95C98.9478 27.5361 99.7962 27.3387 100.65 27.38C101.195 27.3659 101.739 27.4402 102.26 27.6C102.661 27.7317 103.025 27.9581 103.32 28.26C103.588 28.5443 103.786 28.8865 103.9 29.26C104.025 29.6988 104.086 30.1536 104.08 30.61V35.8H102L102.05 34.74ZM102.05 32.12H101.05C100.676 32.125 100.304 32.172 99.94 32.26C99.7078 32.3066 99.4869 32.3983 99.29 32.53C99.1458 32.6215 99.0366 32.7589 98.98 32.92C98.9267 33.0744 98.8996 33.2367 98.9 33.4C98.8952 33.5224 98.9178 33.6443 98.9663 33.7568C99.0147 33.8692 99.0878 33.9694 99.18 34.05C99.4072 34.219 99.6876 34.3006 99.97 34.28C100.46 34.3018 100.944 34.165 101.35 33.89C101.551 33.7402 101.718 33.5493 101.84 33.33C101.977 33.0721 102.043 32.782 102.03 32.49L102.05 32.12ZM105.47 24.56H107.63V30.44L110.78 27.58H113.33L110.33 30.41L113.56 35.78H111.18L108.7 31.6L107.56 32.6V35.71H105.4L105.47 24.56ZM121.01 33.22C120.925 34.0347 120.531 34.786 119.91 35.32C119.15 35.8393 118.238 36.0892 117.32 36.03C116.758 36.0686 116.193 35.9879 115.664 35.7932C115.135 35.5985 114.653 35.2941 114.25 34.9C113.521 33.9959 113.163 32.8482 113.25 31.69C113.24 31.0637 113.341 30.4406 113.55 29.85C113.733 29.3377 114.019 28.8681 114.39 28.47C114.754 28.0929 115.198 27.8024 115.69 27.62C116.22 27.4178 116.783 27.3193 117.35 27.33C117.874 27.2914 118.399 27.3681 118.89 27.5547C119.381 27.7413 119.824 28.0333 120.19 28.41C120.799 29.2444 121.087 30.2706 121 31.3V32.18H115.31C115.297 32.7383 115.473 33.2847 115.81 33.73C115.99 33.9234 116.211 34.074 116.457 34.1709C116.702 34.2678 116.967 34.3085 117.23 34.29C117.579 34.34 117.934 34.2535 118.22 34.0486C118.507 33.8438 118.704 33.5362 118.77 33.19L121.01 33.22ZM119.01 30.77C119.041 30.2928 118.891 29.8215 118.59 29.45C118.421 29.2812 118.217 29.1516 117.992 29.0704C117.768 28.9891 117.528 28.9583 117.29 28.98C117.026 28.9715 116.764 29.0193 116.52 29.12C116.311 29.2052 116.124 29.3348 115.97 29.5C115.815 29.6653 115.693 29.8588 115.61 30.07C115.526 30.2943 115.479 30.5307 115.47 30.77H119.01ZM122.37 27.58H124.51V28.72C124.75 28.3052 125.095 27.9605 125.51 27.72C125.881 27.506 126.302 27.3955 126.73 27.4C126.903 27.3887 127.077 27.3887 127.25 27.4H127.61L127.34 29.4C127.038 29.3345 126.729 29.3043 126.42 29.31C126.188 29.3107 125.956 29.3376 125.73 29.39C125.509 29.4522 125.305 29.5613 125.13 29.71C124.95 29.8667 124.806 30.0614 124.71 30.28C124.623 30.482 124.579 30.7 124.58 30.92V35.67H122.38L122.37 27.58ZM129.82 33.17C129.825 33.3639 129.882 33.553 129.983 33.7181C130.085 33.8832 130.229 34.0184 130.4 34.11C130.755 34.2672 131.142 34.3424 131.53 34.33C131.913 34.3584 132.298 34.2932 132.65 34.14C132.761 34.0762 132.852 33.9823 132.912 33.8691C132.973 33.7558 132.999 33.6279 132.99 33.5C132.991 33.2968 132.917 33.1005 132.78 32.95C132.555 32.7518 132.269 32.6355 131.97 32.62L130.84 32.43C130.04 32.3551 129.272 32.0763 128.61 31.62C128.361 31.4091 128.165 31.1426 128.039 30.8421C127.912 30.5415 127.858 30.2154 127.88 29.89C127.875 29.5171 127.964 29.1489 128.14 28.82C128.32 28.5016 128.569 28.2281 128.87 28.02C129.215 27.7871 129.597 27.6147 130 27.51C130.47 27.3849 130.954 27.3243 131.44 27.33C131.99 27.3168 132.538 27.3808 133.07 27.52C133.46 27.6268 133.827 27.8066 134.15 28.05C134.413 28.2594 134.625 28.5262 134.77 28.83C134.921 29.1466 135.026 29.4834 135.08 29.83L133 30C132.934 29.6739 132.758 29.3806 132.5 29.17C132.159 28.9602 131.759 28.8656 131.36 28.9C131.115 28.894 130.87 28.9175 130.63 28.97C130.472 29.007 130.32 29.0676 130.18 29.15C130.083 29.2148 130.001 29.3001 129.94 29.4C129.896 29.4833 129.872 29.5757 129.87 29.67C129.861 29.7773 129.879 29.8851 129.92 29.9843C129.962 30.0836 130.027 30.1713 130.11 30.24C130.417 30.4139 130.758 30.5196 131.11 30.55L132.11 30.72C132.598 30.7949 133.077 30.9189 133.54 31.09C133.875 31.2029 134.183 31.3871 134.44 31.63C134.665 31.8357 134.831 32.0982 134.92 32.39C135.007 32.7161 135.051 33.0524 135.05 33.39C135.063 33.7479 134.991 34.1038 134.837 34.4276C134.684 34.7513 134.455 35.0334 134.17 35.25C133.367 35.7798 132.409 36.0261 131.45 35.95C130.977 35.9532 130.505 35.9097 130.04 35.82C129.618 35.7363 129.215 35.577 128.85 35.35C128.497 35.13 128.202 34.8282 127.99 34.47C127.743 34.0515 127.608 33.576 127.6 33.09L129.82 33.17ZM3 11.62L34.79 3.11L53 11.62V48.38L21.24 56.89L3 48.38V11.62ZM0 50.24L21 60L56 50.62V9.76L35 0L0 9.38V50.24ZM39.3 24.51H44.4L48.6 35.77H45.19L44.44 33.4H39.3L38.55 35.77H35.14L39.3 24.51ZM40.08 31H43.66L42.37 27H41.37L40.08 31ZM34.48 24.55L33.48 27.26H30.11V35.81H26.8V27.22H23.14V24.51L34.48 24.55ZM11.48 24.55V31.15C11.48 32.81 12.32 33.43 13.98 33.43C15.64 33.43 16.47 32.81 16.47 31.15V24.55H19.75V30.91C19.75 34.62 17.69 36.1 13.98 36.1C10.27 36.1 8.2 34.62 8.2 30.91V24.51L11.48 24.55Z" fill="#141414"/>
</svg>
